<svg xmlns="http://www.w3.org/2000/svg" version="1.1" xmlns:xlink="http://www.w3.org/1999/xlink" xmlns:svgjs="http://svgjs.dev/svgjs" width="2000" height="1500" viewBox="0 0 2000 1500"><rect width="2000" height="1500" fill="#31c48d"></rect><g transform="matrix(0.75,0,0,0.75,249.090909090909,282.7536437246963)"><svg viewBox="0 0 396 247" data-background-color="#31c48d" preserveAspectRatio="xMidYMid meet" height="1247" width="2000" xmlns="http://www.w3.org/2000/svg" xmlns:xlink="http://www.w3.org/1999/xlink"><g id="tight-bounds" transform="matrix(1,0,0,1,0.2400000000000091,-0.09999999999999432)"><svg viewBox="0 0 395.52 247.2" height="247.2" width="395.52"><g><svg></svg></g><g><svg viewBox="0 0 395.52 247.2" height="247.2" width="395.52"><g><path d="M55.039 247.2l26.403-45.732 2.848 0-24.902 43.131h276.744l-24.902-43.131 2.848 0 26.403 45.732zM197.76 0l26.403 45.732-2.847 0-23.556-40.8-23.556 40.8-2.847 0z" fill="#ffffff" fill-rule="nonzero" stroke="none" stroke-width="1" stroke-linecap="butt" stroke-linejoin="miter" stroke-miterlimit="10" stroke-dasharray="" stroke-dashoffset="0" font-family="none" font-weight="none" font-size="none" text-anchor="none" style="mix-blend-mode: normal" data-fill-palette-color="tertiary"></path></g><g transform="matrix(1,0,0,1,56.975974466739586,67.97999999999999)"><svg viewBox="0 0 281.5680510665208 111.24" height="111.24" width="281.5680510665208"><g><svg viewBox="0 0 343.95785381535427 135.8885410240688" height="111.24" width="281.5680510665208"><g><rect width="4.600927083765971" height="135.8885410240688" x="132.4619949344175" y="0" fill="#ffffff" opacity="1" stroke-width="0" stroke="transparent" fill-opacity="1" class="rect-in-0" data-fill-palette-color="primary" rx="1%" id="in-0" data-palette-color="#ffffff"></rect></g><g transform="matrix(1,0,0,1,149.10723375579073,0.3380311965772762)"><svg viewBox="0 0 194.85062005956354 135.21247863091423" height="135.21247863091423" width="194.85062005956354"><g><svg viewBox="0 0 194.85062005956354 135.21247863091423" height="135.21247863091423" width="194.85062005956354"><g><svg viewBox="0 0 194.85062005956354 110.5525368" height="110.5525368" width="194.85062005956354"><g transform="matrix(1,0,0,1,0,0)"><svg width="194.85062005956354" viewBox="-0.5663258421247589 -35.449999999999996 139.31632584212474 74.9" height="110.5525368" data-palette-color="#ffffff"><svg></svg><svg></svg><g class="undefined-text-0" data-fill-palette-color="primary" id="text-0"><path d="M15.7-23.15l4.2-10.2c0.433-1.167 2.567-1.75 6.4-1.75v0c0.967 0 2.11 0.067 3.43 0.2 1.313 0.133 1.92 0.3 1.82 0.5v0l-10.4 20.9v12.2c0 0.567-0.917 0.967-2.75 1.2v0c-0.933 0.133-1.85 0.2-2.75 0.2-0.9 0-1.8-0.05-2.7-0.15v0c-1.833-0.233-2.75-0.65-2.75-1.25v0-11.9l-10.75-21.1c-0.133-0.2 0.55-0.393 2.05-0.58 1.5-0.18 2.767-0.27 3.8-0.27v0c4.1 0 6.35 0.6 6.75 1.8v0zM48.13 0.5c-4.687 0-8.507-1.533-11.46-4.6-2.947-3.067-4.42-7.543-4.42-13.43 0-5.88 1.493-10.337 4.48-13.37 2.98-3.033 6.83-4.55 11.55-4.55 4.713 0 8.52 1.49 11.42 4.47 2.9 2.987 4.35 7.503 4.35 13.55 0 6.053-1.483 10.553-4.45 13.5-2.967 2.953-6.79 4.43-11.47 4.43zM48.15-25.85c-1.6 0-2.94 0.733-4.02 2.2-1.087 1.467-1.63 3.523-1.63 6.17 0 2.653 0.517 4.687 1.55 6.1 1.033 1.42 2.393 2.13 4.08 2.13 1.68 0 3.047-0.717 4.1-2.15 1.047-1.433 1.57-3.483 1.57-6.15 0-2.667-0.543-4.717-1.63-6.15-1.08-1.433-2.42-2.15-4.02-2.15zM84.4-11.4v-22.6c0-0.667 1.81-1 5.43-1 3.613 0 5.42 0.333 5.42 1v0 22.95c0 3.4-1.217 6.173-3.65 8.32-2.433 2.153-5.79 3.23-10.07 3.23-4.287 0-7.77-1.11-10.45-3.33-2.687-2.213-4.03-5.203-4.03-8.97v0-22.15c0-0.667 1.81-1 5.43-1 3.613 0 5.42 0.333 5.42 1v0 22.55c0 0.667 0.35 1.2 1.05 1.6v0c0.733 0.4 1.5 0.6 2.3 0.6 0.8 0 1.527-0.183 2.18-0.55 0.647-0.367 0.97-0.917 0.97-1.65zM109-12.05v11.35c0 0.533-1.583 0.8-4.75 0.8v0c-3.2 0-4.8-0.25-4.8-0.75v0-32.6c0-1.167 0.617-1.75 1.85-1.75v0h9.55c8.767 0 13.15 3.417 13.15 10.25v0c0 2.067-0.4 3.94-1.2 5.62-0.8 1.687-1.933 3.03-3.4 4.03v0l6.3 10.5c-0.267 0.8-1.133 1.717-2.6 2.75v0c-2 1.433-3.65 2.15-4.95 2.15-1.3 0-2.267-0.467-2.9-1.4v0l-4.7-10.95zM110.05-26.15h-1.05v7.5h0.25c3.167 0 4.75-1.317 4.75-3.95v0c0-1.2-0.307-2.093-0.92-2.68-0.62-0.58-1.63-0.87-3.03-0.87z" fill="#ffffff" fill-rule="nonzero" stroke="none" stroke-width="1" stroke-linecap="butt" stroke-linejoin="miter" stroke-miterlimit="10" stroke-dasharray="" stroke-dashoffset="0" font-family="none" font-weight="none" font-size="none" text-anchor="none" style="mix-blend-mode: normal" data-fill-palette-color="primary" opacity="1"></path><path transform="translate(0,38.95)" d="M3.8-12.2v0c0.633 0.5 1.727 1.183 3.28 2.05 1.547 0.867 3.03 1.3 4.45 1.3 1.413 0 2.12-0.55 2.12-1.65v0c0-0.5-0.2-0.943-0.6-1.33-0.4-0.38-1.133-0.82-2.2-1.32-1.067-0.5-1.867-0.893-2.4-1.18-0.533-0.28-1.24-0.747-2.12-1.4-0.887-0.647-1.563-1.32-2.03-2.02v0c-1.333-1.9-2-4.317-2-7.25 0-2.933 1.093-5.41 3.28-7.43 2.18-2.013 5.037-3.02 8.57-3.02v0c2.4 0 4.617 0.257 6.65 0.77 2.033 0.52 3.083 1.197 3.15 2.03v0c0 0.1 0 0.2 0 0.3v0c0 1.167-0.367 2.64-1.1 4.42-0.733 1.787-1.25 2.78-1.55 2.98v0c-2.133-1.1-4.04-1.65-5.72-1.65-1.687 0-2.53 0.6-2.53 1.8v0c0 0.733 0.617 1.383 1.85 1.95v0c0.267 0.133 0.65 0.317 1.15 0.55 0.5 0.233 1.077 0.507 1.73 0.82 0.647 0.32 1.347 0.72 2.1 1.2 0.747 0.487 1.553 1.13 2.42 1.93v0c1.767 1.667 2.65 3.867 2.65 6.6v0c0 3.567-0.983 6.483-2.95 8.75-1.967 2.267-5 3.433-9.1 3.5v0c-2 0-3.807-0.167-5.42-0.5-1.62-0.333-3.03-0.983-4.23-1.95-1.2-0.967-1.8-2.133-1.8-3.5 0-1.367 0.25-2.727 0.75-4.08 0.5-1.347 1.033-2.237 1.6-2.67zM44.1-25.9v25.1c0 0.667-1.65 1-4.95 1-3.3 0-4.95-0.333-4.95-1v0-25.1h-6c-0.567 0-0.967-0.767-1.2-2.3v0c-0.1-0.733-0.15-1.483-0.15-2.25 0-0.767 0.05-1.517 0.15-2.25v0c0.233-1.533 0.633-2.3 1.2-2.3v0h21.75c0.567 0 0.967 0.767 1.2 2.3v0c0.1 0.733 0.15 1.483 0.15 2.25 0 0.767-0.05 1.517-0.15 2.25v0c-0.233 1.533-0.633 2.3-1.2 2.3v0zM69.03 0.5c-4.687 0-8.503-1.533-11.45-4.6-2.953-3.067-4.43-7.543-4.43-13.43 0-5.88 1.493-10.337 4.48-13.37 2.98-3.033 6.83-4.55 11.55-4.55 4.713 0 8.52 1.49 11.42 4.47 2.9 2.987 4.35 7.503 4.35 13.55 0 6.053-1.483 10.553-4.45 13.5-2.967 2.953-6.79 4.43-11.47 4.43zM69.05-25.85c-1.6 0-2.94 0.733-4.02 2.2-1.087 1.467-1.63 3.523-1.63 6.17 0 2.653 0.517 4.687 1.55 6.1 1.033 1.42 2.393 2.13 4.08 2.13 1.68 0 3.047-0.717 4.1-2.15 1.047-1.433 1.57-3.483 1.57-6.15 0-2.667-0.54-4.717-1.62-6.15-1.087-1.433-2.43-2.15-4.03-2.15zM98.5-12.05v11.35c0 0.533-1.583 0.8-4.75 0.8v0c-3.2 0-4.8-0.25-4.8-0.75v0-32.6c0-1.167 0.617-1.75 1.85-1.75v0h9.55c8.767 0 13.15 3.417 13.15 10.25v0c0 2.067-0.4 3.94-1.2 5.62-0.8 1.687-1.933 3.03-3.4 4.03v0l6.3 10.5c-0.267 0.8-1.133 1.717-2.6 2.75v0c-2 1.433-3.65 2.15-4.95 2.15-1.3 0-2.267-0.467-2.9-1.4v0l-4.7-10.95zM99.55-26.15h-1.05v7.5h0.25c3.167 0 4.75-1.317 4.75-3.95v0c0-1.2-0.307-2.093-0.92-2.68-0.62-0.58-1.63-0.87-3.03-0.87zM128.25-21.1h6.45c0.633 0 0.95 1.167 0.95 3.5v0c0 0.7-0.073 1.523-0.22 2.47-0.153 0.953-0.43 1.43-0.83 1.43v0h-6.35v5h9.2c0.567 0 0.95 0.733 1.15 2.2v0c0.1 0.633 0.15 1.307 0.15 2.02 0 0.72-0.1 1.647-0.3 2.78-0.2 1.133-0.533 1.7-1 1.7v0h-17.1c-1.267 0-1.9-0.517-1.9-1.55v0-32.15c0-0.867 0.383-1.3 1.15-1.3v0h17.9c0.7 0 1.05 1.473 1.05 4.42 0 2.953-0.35 4.43-1.05 4.43v0h-9.25z" fill="#ffffff" fill-rule="nonzero" stroke="none" stroke-width="1" stroke-linecap="butt" stroke-linejoin="miter" stroke-miterlimit="10" stroke-dasharray="" stroke-dashoffset="0" font-family="none" font-weight="none" font-size="none" text-anchor="none" style="mix-blend-mode: normal" data-fill-palette-color="primary" opacity="1"></path></g></svg></g></svg></g><g transform="matrix(1,0,0,1,0,122.59684853760726)"><svg viewBox="0 0 185.10808905658536 12.615630093306969" height="12.615630093306969" width="185.10808905658536"><g transform="matrix(1,0,0,1,0,0)"><svg width="185.10808905658536" viewBox="2.8 -37.4 704.24 48" height="12.615630093306969" data-palette-color="#740b0b"><path d="M19.15 0L20.15-6.1 20-6.1Q18.5-3.05 16.38-1.23 14.25 0.6 10.85 0.6L10.85 0.6Q6.95 0.6 4.88-1.9 2.8-4.4 2.8-9.4L2.8-9.4Q2.8-12 3.43-14.98 4.05-17.95 5.48-20.5 6.9-23.05 9.25-24.73 11.6-26.4 15-26.4L15-26.4Q17.85-26.4 19.78-25.13 21.7-23.85 22.55-21.3L22.55-21.3 22.7-21.3 25.35-37 29.25-37 23.05 0 19.15 0ZM12.2-2.85L12.2-2.85Q13.8-2.85 15.35-3.53 16.9-4.2 18.25-5.7L18.25-5.7Q19.25-6.8 20.03-8.3 20.8-9.8 21.1-11.6L21.1-11.6 22.05-17.3Q22.5-20 20.78-21.48 19.05-22.95 16.15-22.95L16.15-22.95Q12.4-22.95 10.28-20.7 8.15-18.45 7.55-14.85L7.55-14.85 6.95-11.25Q6.85-10.55 6.8-10.03 6.75-9.5 6.75-9L6.75-9Q6.75-6.1 8.13-4.48 9.5-2.85 12.2-2.85ZM43.25 0.6L43.25 0.6Q40.75 0.6 38.87-0.2 37-1 35.75-2.43 34.5-3.85 33.85-5.88 33.2-7.9 33.2-10.3L33.2-10.3Q33.2-14 34.25-16.98 35.3-19.95 37.12-22.05 38.95-24.15 41.4-25.28 43.85-26.4 46.7-26.4L46.7-26.4Q49.2-26.4 51.1-25.6 53-24.8 54.27-23.38 55.55-21.95 56.17-19.93 56.8-17.9 56.8-15.5L56.8-15.5Q56.8-11.8 55.75-8.83 54.7-5.85 52.87-3.75 51.05-1.65 48.57-0.53 46.1 0.6 43.25 0.6ZM43.45-2.8L43.45-2.8Q47.1-2.8 49.27-5.03 51.45-7.25 52.1-11.1L52.1-11.1 52.6-14.1Q52.75-15 52.8-15.6 52.85-16.2 52.85-16.65L52.85-16.65Q52.85-19.95 51.15-21.48 49.45-23 46.55-23L46.55-23Q42.9-23 40.72-20.78 38.55-18.55 37.9-14.7L37.9-14.7 37.4-11.7Q37.25-10.8 37.2-10.2 37.15-9.6 37.15-9.15L37.15-9.15Q37.15-5.85 38.85-4.33 40.55-2.8 43.45-2.8ZM66.84 0L62.95 0 67.25-25.8 71.15-25.8 70.15-19.7 70.34-19.7Q71.8-22.8 73.8-24.6 75.8-26.4 78.95-26.4L78.95-26.4Q82.2-26.4 84.07-24.45 85.95-22.5 85.95-18.95L85.95-18.95Q85.95-18.2 85.87-17.32 85.8-16.45 85.65-15.6L85.65-15.6 83.05 0 79.15 0 81.7-15.25Q81.84-16.15 81.9-16.88 81.95-17.6 81.95-18L81.95-18Q81.95-20.3 80.9-21.63 79.84-22.95 77.65-22.95L77.65-22.95Q75.95-22.95 74.62-22.2 73.3-21.45 72.2-20.15L72.2-20.15Q72-19.9 71.57-19.38 71.15-18.85 70.7-18.07 70.25-17.3 69.84-16.32 69.45-15.35 69.25-14.25L69.25-14.25 66.84 0ZM108.54-23.2L104.84-23.2 107.14-37 110.84-37 108.54-23.2ZM131.94 0.6L131.94 0.6Q130.19 0.6 129.22-0.35 128.24-1.3 128.24-3.1L128.24-3.1Q128.24-3.45 128.27-4.05 128.29-4.65 128.39-5.05L128.39-5.05 131.39-22.45 123.94-22.45 124.49-25.8 129.74-25.8Q131.04-25.8 131.67-26.33 132.29-26.85 132.54-28.15L132.54-28.15 133.69-34.9 137.39-34.9 135.84-25.8 146.49-25.8 145.94-22.45 135.29-22.45 132.09-3.35 133.09-2.75 144.34-10.25 146.29-7.75 140.64-3.75Q138.89-2.5 137.62-1.68 136.34-0.85 135.31-0.35 134.29 0.15 133.49 0.38 132.69 0.6 131.94 0.6ZM186.64 0.5L186.64 0.5Q184.39 0.5 183.26-0.88 182.14-2.25 182.14-4.6L182.14-4.6Q182.14-5.4 182.21-6.18 182.29-6.95 182.44-7.95L182.44-7.95 185.39-25.8 188.89-25.8 186.09-8.65Q185.79-6.9 185.79-5.55L185.79-5.55Q185.79-4.05 186.36-3.38 186.94-2.7 188.04-2.7L188.04-2.7Q189.04-2.7 189.79-3.25 190.54-3.8 191.24-4.7L191.24-4.7Q191.94-5.7 192.31-7 192.69-8.3 192.89-9.3L192.89-9.3 195.74-25.8 199.14-25.8 196.34-8.65Q196.19-7.7 196.14-6.98 196.09-6.25 196.09-5.6L196.09-5.6Q196.09-4.05 196.61-3.38 197.14-2.7 198.29-2.7L198.29-2.7Q199.69-2.7 200.89-4.1 202.09-5.5 202.96-7.75 203.84-10 204.34-12.8 204.84-15.6 204.84-18.35L204.84-18.35Q204.84-20.25 204.54-22.05 204.24-23.85 203.69-25.05L203.69-25.05 206.99-26.05Q207.59-24.75 207.96-22.8 208.34-20.85 208.34-18.55L208.34-18.55Q208.34-14 207.34-9.98 206.34-5.95 204.44-3.3L204.44-3.3Q201.69 0.5 197.49 0.5L197.49 0.5Q196.49 0.5 195.66 0.23 194.84-0.05 194.26-0.68 193.69-1.3 193.41-2.3 193.14-3.3 193.24-4.75L193.24-4.75 192.99-4.75Q191.89-2.3 190.46-0.9 189.04 0.5 186.64 0.5ZM223.23 0.6L223.23 0.6Q220.73 0.6 218.86-0.2 216.98-1 215.73-2.43 214.48-3.85 213.83-5.88 213.18-7.9 213.18-10.3L213.18-10.3Q213.18-14 214.23-16.98 215.28-19.95 217.11-22.05 218.93-24.15 221.38-25.28 223.83-26.4 226.68-26.4L226.68-26.4Q229.18-26.4 231.08-25.6 232.98-24.8 234.26-23.38 235.53-21.95 236.16-19.93 236.78-17.9 236.78-15.5L236.78-15.5Q236.78-11.8 235.73-8.83 234.68-5.85 232.86-3.75 231.03-1.65 228.56-0.53 226.08 0.6 223.23 0.6ZM223.43-2.8L223.43-2.8Q227.08-2.8 229.26-5.03 231.43-7.25 232.08-11.1L232.08-11.1 232.58-14.1Q232.73-15 232.78-15.6 232.83-16.2 232.83-16.65L232.83-16.65Q232.83-19.95 231.13-21.48 229.43-23 226.53-23L226.53-23Q222.88-23 220.71-20.78 218.53-18.55 217.88-14.7L217.88-14.7 217.38-11.7Q217.23-10.8 217.18-10.2 217.13-9.6 217.13-9.15L217.13-9.15Q217.13-5.85 218.83-4.33 220.53-2.8 223.43-2.8ZM252.78 0L248.88 0 252.63-22.45 245.38-22.45 245.93-25.8 257.08-25.8 255.93-18.9 256.18-18.9Q256.83-20.45 257.68-21.73 258.53-23 259.66-23.9 260.78-24.8 262.23-25.3 263.68-25.8 265.53-25.8L265.53-25.8 269.43-25.8 268.78-21.9 264.38-21.9Q262.13-21.9 260.63-21.28 259.13-20.65 257.98-19.3L257.98-19.3Q257.73-19 257.31-18.48 256.88-17.95 256.43-17.2 255.98-16.45 255.61-15.5 255.23-14.55 255.03-13.45L255.03-13.45 252.78 0ZM282.78 0L278.88 0 282.63-22.45 275.38-22.45 275.93-25.8 287.08-25.8 285.93-18.9 286.18-18.9Q286.83-20.45 287.68-21.73 288.53-23 289.65-23.9 290.78-24.8 292.23-25.3 293.68-25.8 295.53-25.8L295.53-25.8 299.43-25.8 298.78-21.9 294.38-21.9Q292.13-21.9 290.63-21.28 289.13-20.65 287.98-19.3L287.98-19.3Q287.73-19 287.3-18.48 286.88-17.95 286.43-17.2 285.98-16.45 285.6-15.5 285.23-14.55 285.03-13.45L285.03-13.45 282.78 0ZM310.38 10.6L310.38 10.6Q304.18 10.6 301.33 7.05L301.33 7.05 304.03 4.45Q305.03 5.75 306.63 6.45 308.23 7.15 310.63 7.15L310.63 7.15Q314.23 7.15 316.3 5.33 318.38 3.5 319.08-0.75L319.08-0.75 320.08-6.85 319.93-6.85Q318.48-3.75 316.45-1.95 314.43-0.15 311.28-0.15L311.28-0.15Q308.03-0.15 306.13-2.1 304.23-4.05 304.23-7.6L304.23-7.6Q304.23-8.3 304.3-9.05 304.38-9.8 304.53-10.8L304.53-10.8 307.03-25.8 310.93-25.8 308.48-11.15Q308.33-10.3 308.28-9.63 308.23-8.95 308.23-8.55L308.23-8.55Q308.23-6.25 309.3-4.93 310.38-3.6 312.58-3.6L312.58-3.6Q314.28-3.6 315.6-4.35 316.93-5.1 318.03-6.4L318.03-6.4Q318.23-6.65 318.65-7.18 319.08-7.7 319.53-8.47 319.98-9.25 320.38-10.23 320.78-11.2 320.98-12.3L320.98-12.3 323.23-25.8 327.13-25.8 322.83 0Q321.83 5.7 318.53 8.15 315.23 10.6 310.38 10.6ZM345.52-11.65L343.97-11.65 344.82-24.75 346.52-34.9 350.82-34.9 349.12-24.75 345.52-11.65ZM342.82 0.45L342.82 0.45Q341.07 0.45 340.32-0.18 339.57-0.8 339.57-1.75L339.57-1.75Q339.57-2 339.62-2.35 339.67-2.7 339.77-3.4L339.77-3.4Q340.02-4.75 340.92-5.55 341.82-6.35 343.82-6.35L343.82-6.35Q345.57-6.35 346.32-5.73 347.07-5.1 347.07-4.15L347.07-4.15Q347.07-3.9 347.02-3.55 346.97-3.2 346.87-2.5L346.87-2.5Q346.62-1.15 345.72-0.35 344.82 0.45 342.82 0.45ZM396.62 0.5L396.62 0.5Q394.37 0.5 393.24-0.88 392.12-2.25 392.12-4.6L392.12-4.6Q392.12-5.4 392.19-6.18 392.27-6.95 392.42-7.95L392.42-7.95 395.37-25.8 398.87-25.8 396.07-8.65Q395.77-6.9 395.77-5.55L395.77-5.55Q395.77-4.05 396.34-3.38 396.92-2.7 398.02-2.7L398.02-2.7Q399.02-2.7 399.77-3.25 400.52-3.8 401.22-4.7L401.22-4.7Q401.92-5.7 402.29-7 402.67-8.3 402.87-9.3L402.87-9.3 405.72-25.8 409.12-25.8 406.32-8.65Q406.17-7.7 406.12-6.98 406.07-6.25 406.07-5.6L406.07-5.6Q406.07-4.05 406.59-3.38 407.12-2.7 408.27-2.7L408.27-2.7Q409.67-2.7 410.87-4.1 412.07-5.5 412.94-7.75 413.82-10 414.32-12.8 414.82-15.6 414.82-18.35L414.82-18.35Q414.82-20.25 414.52-22.05 414.22-23.85 413.67-25.05L413.67-25.05 416.97-26.05Q417.57-24.75 417.94-22.8 418.32-20.85 418.32-18.55L418.32-18.55Q418.32-14 417.32-9.98 416.32-5.95 414.42-3.3L414.42-3.3Q411.67 0.5 407.47 0.5L407.47 0.5Q406.47 0.5 405.64 0.23 404.82-0.05 404.24-0.68 403.67-1.3 403.39-2.3 403.12-3.3 403.22-4.75L403.22-4.75 402.97-4.75Q401.87-2.3 400.44-0.9 399.02 0.5 396.62 0.5ZM433.82 0.6L433.82 0.6Q428.92 0.6 426.27-2.13 423.62-4.85 423.62-10.45L423.62-10.45Q423.62-13.95 424.67-16.88 425.72-19.8 427.59-21.93 429.47-24.05 432.09-25.23 434.72-26.4 437.82-26.4L437.82-26.4Q439.72-26.4 441.32-25.95 442.92-25.5 444.09-24.63 445.27-23.75 445.92-22.45 446.57-21.15 446.57-19.45L446.57-19.45Q446.57-18.1 445.94-16.65 445.32-15.2 443.34-13.95 441.37-12.7 437.64-11.85 433.92-11 427.77-10.85L427.77-10.85Q427.72-10.45 427.72-10.13 427.72-9.8 427.72-9.7L427.72-9.7Q427.72-8.35 427.97-7.1 428.22-5.85 428.92-4.88 429.62-3.9 430.87-3.33 432.12-2.75 434.17-2.75L434.17-2.75Q435.57-2.75 436.69-3.08 437.82-3.4 438.84-4.08 439.87-4.75 440.84-5.83 441.82-6.9 442.92-8.45L442.92-8.45 445.67-6.75Q443.47-3.15 440.69-1.28 437.92 0.6 433.82 0.6ZM437.47-23.15L437.47-23.15Q433.57-23.15 431.12-20.8 428.67-18.45 428.12-14.05L428.12-14.05 428.07-13.55Q432.77-13.7 435.64-14.28 438.52-14.85 440.04-15.65 441.57-16.45 442.07-17.4 442.57-18.35 442.57-19.3L442.57-19.3Q442.57-20.1 442.29-20.8 442.02-21.5 441.42-22.03 440.82-22.55 439.84-22.85 438.87-23.15 437.47-23.15ZM482.91 0L489.11-37 493.01-37 490.11-19.7 490.31-19.7Q491.76-22.8 493.76-24.6 495.76-26.4 498.91-26.4L498.91-26.4Q502.16-26.4 504.04-24.45 505.91-22.5 505.91-18.95L505.91-18.95Q505.91-18.2 505.84-17.32 505.76-16.45 505.61-15.6L505.61-15.6 503.01 0 499.11 0 501.66-15.25Q501.81-16.15 501.86-16.88 501.91-17.6 501.91-18L501.91-18Q501.91-20.3 500.86-21.63 499.81-22.95 497.61-22.95L497.61-22.95Q495.91-22.95 494.59-22.2 493.26-21.45 492.16-20.15L492.16-20.15Q491.96-19.9 491.54-19.38 491.11-18.85 490.66-18.07 490.21-17.3 489.81-16.32 489.41-15.35 489.21-14.25L489.21-14.25 486.81 0 482.91 0ZM533.01 0L529.11 0 530.11-6.1 529.96-6.1Q528.46-3.05 526.33-1.23 524.21 0.6 520.81 0.6L520.81 0.6Q516.91 0.6 514.83-1.9 512.76-4.4 512.76-9.4L512.76-9.4Q512.76-12 513.38-14.98 514.01-17.95 515.43-20.5 516.86-23.05 519.21-24.73 521.56-26.4 524.96-26.4L524.96-26.4Q527.81-26.4 529.73-25.13 531.66-23.85 532.51-21.3L532.51-21.3 532.66-21.3 533.41-25.8 537.31-25.8 533.01 0ZM522.16-2.85L522.16-2.85Q523.76-2.85 525.31-3.53 526.86-4.2 528.21-5.7L528.21-5.7Q529.21-6.8 529.98-8.3 530.76-9.8 531.06-11.6L531.06-11.6 532.01-17.3Q532.46-20 530.73-21.48 529.01-22.95 526.11-22.95L526.11-22.95Q522.36-22.95 520.23-20.7 518.11-18.45 517.51-14.85L517.51-14.85 516.91-11.25Q516.81-10.55 516.76-10.03 516.71-9.5 516.71-9L516.71-9Q516.71-6.1 518.08-4.48 519.46-2.85 522.16-2.85ZM543.8-25.8L553.1-25.8 549.7-3.1 550.35-2.65Q553.45-3.05 555.83-4.55 558.2-6.05 559.8-8.25 561.4-10.45 562.2-13.15 563-15.85 563-18.65L563-18.65Q563-20.35 562.65-21.98 562.3-23.6 561.6-25L561.6-25 565.35-26.1Q566.15-24.6 566.58-22.75 567-20.9 567-18.85L567-18.85Q567-14.9 565.63-11.4 564.25-7.9 561.9-5.28 559.55-2.65 556.43-1.13 553.3 0.4 549.8 0.4L549.8 0.4Q547.85 0.4 546.9-0.55 545.95-1.5 545.95-3.2L545.95-3.2Q545.95-3.6 546-4.1 546.05-4.6 546.15-5.05L546.15-5.05 548.75-22.45 543.25-22.45 543.8-25.8ZM583.8 0.6L583.8 0.6Q578.9 0.6 576.25-2.13 573.6-4.85 573.6-10.45L573.6-10.45Q573.6-13.95 574.65-16.88 575.7-19.8 577.58-21.93 579.45-24.05 582.08-25.23 584.7-26.4 587.8-26.4L587.8-26.4Q589.7-26.4 591.3-25.95 592.9-25.5 594.08-24.63 595.25-23.75 595.9-22.45 596.55-21.15 596.55-19.45L596.55-19.45Q596.55-18.1 595.93-16.65 595.3-15.2 593.33-13.95 591.35-12.7 587.63-11.85 583.9-11 577.75-10.85L577.75-10.85Q577.7-10.45 577.7-10.13 577.7-9.8 577.7-9.7L577.7-9.7Q577.7-8.35 577.95-7.1 578.2-5.85 578.9-4.88 579.6-3.9 580.85-3.33 582.1-2.75 584.15-2.75L584.15-2.75Q585.55-2.75 586.68-3.08 587.8-3.4 588.83-4.08 589.85-4.75 590.83-5.83 591.8-6.9 592.9-8.45L592.9-8.45 595.65-6.75Q593.45-3.15 590.68-1.28 587.9 0.6 583.8 0.6ZM587.45-23.15L587.45-23.15Q583.55-23.15 581.1-20.8 578.65-18.45 578.1-14.05L578.1-14.05 578.05-13.55Q582.75-13.7 585.63-14.28 588.5-14.85 590.03-15.65 591.55-16.45 592.05-17.4 592.55-18.35 592.55-19.3L592.55-19.3Q592.55-20.1 592.28-20.8 592-21.5 591.4-22.03 590.8-22.55 589.83-22.85 588.85-23.15 587.45-23.15ZM646.95-31.55L646.95-31.55Q645.35-31.55 644.7-32.15 644.05-32.75 644.05-33.55L644.05-33.55Q644.05-33.85 644.1-34.2 644.15-34.55 644.25-35L644.25-35Q644.45-36.15 645.25-36.77 646.05-37.4 647.55-37.4L647.55-37.4Q649.15-37.4 649.8-36.8 650.45-36.2 650.45-35.4L650.45-35.4Q650.45-35.1 650.4-34.75 650.35-34.4 650.25-33.95L650.25-33.95Q650.05-32.8 649.25-32.18 648.45-31.55 646.95-31.55ZM643.55 0.6L643.55 0.6Q641.65 0.6 640.67-0.38 639.7-1.35 639.7-2.85L639.7-2.85Q639.7-3.35 639.77-3.88 639.85-4.4 639.95-4.85L639.95-4.85 643.35-22.45 634.05-22.45 634.6-25.8 647.9-25.8 643.55-3.3 644.7-2.85 654.55-11.35 656.9-9.15 652.35-4.95Q650.6-3.3 649.32-2.25 648.05-1.2 647.05-0.55 646.05 0.1 645.22 0.35 644.4 0.6 643.55 0.6ZM671.89 0.6L671.89 0.6Q670.14 0.6 669.17-0.35 668.19-1.3 668.19-3.1L668.19-3.1Q668.19-3.45 668.22-4.05 668.24-4.65 668.34-5.05L668.34-5.05 671.34-22.45 663.89-22.45 664.44-25.8 669.69-25.8Q670.99-25.8 671.62-26.33 672.24-26.85 672.49-28.15L672.49-28.15 673.64-34.9 677.34-34.9 675.79-25.8 686.44-25.8 685.89-22.45 675.24-22.45 672.04-3.35 673.04-2.75 684.29-10.25 686.24-7.75 680.59-3.75Q678.84-2.5 677.57-1.68 676.29-0.85 675.27-0.35 674.24 0.15 673.44 0.38 672.64 0.6 671.89 0.6ZM702.79 0.45L702.79 0.45Q701.04 0.45 700.29-0.2 699.54-0.85 699.54-1.8L699.54-1.8Q699.54-2.1 699.59-2.53 699.64-2.95 699.74-3.4L699.74-3.4Q699.99-4.75 700.94-5.55 701.89-6.35 703.79-6.35L703.79-6.35Q705.54-6.35 706.29-5.7 707.04-5.05 707.04-4.1L707.04-4.1Q707.04-3.8 706.99-3.38 706.94-2.95 706.84-2.5L706.84-2.5Q706.59-1.15 705.64-0.35 704.69 0.45 702.79 0.45Z" opacity="1" transform="matrix(1,0,0,1,0,0)" fill="#740b0b" class="undefined-text-1" data-fill-palette-color="secondary" id="text-1"></path></svg></g></svg></g></svg></g></svg></g><g transform="matrix(1,0,0,1,0,14.30358040033196)"><svg viewBox="0 0 120.41768319681026 107.28138022340487" height="107.28138022340487" width="120.41768319681026"><g><svg xmlns="http://www.w3.org/2000/svg" xmlns:xlink="http://www.w3.org/1999/xlink" version="1.1" x="0" y="0" viewBox="18.096 21.575 63.81 56.84899999999999" enable-background="new 0 0 100 100" xml:space="preserve" height="107.28138022340487" width="120.41768319681026" class="icon-icon-0" data-fill-palette-color="accent" id="icon-0"><g fill="#ffffff" data-fill-palette-color="accent"><path d="M37.17 21.575c-1.78 0-3.278 1.455-3.278 3.245 0 0.755 0.311 1.455 0.763 2.015L24.623 40.459h-3.419c-1.696 0-3.108 1.371-3.108 3.05v7.694c0 1.679 1.413 3.077 3.108 3.077h0.565l7.687 23.612c0.113 0.309 0.452 0.532 0.791 0.532h5.708 28.062 5.737c0.339 0 0.649-0.224 0.763-0.532l7.687-23.612h0.594c1.724 0 3.108-1.398 3.108-3.077v-7.694c0-1.679-1.385-3.05-3.108-3.05h-3.392L65.316 26.807c0.452-0.56 0.764-1.231 0.764-1.986 0-1.791-1.498-3.245-3.278-3.245S59.58 23.03 59.58 24.82c0 1.763 1.441 3.218 3.222 3.218 0.452 0 0.876-0.084 1.271-0.252l9.326 12.673H26.601l9.326-12.673c0.368 0.168 0.792 0.252 1.244 0.252 1.78 0 3.222-1.455 3.222-3.218C40.392 23.03 38.95 21.575 37.17 21.575L37.17 21.575zM37.17 23.142c0.904 0 1.667 0.756 1.667 1.679 0 0.896-0.763 1.623-1.667 1.623-0.933 0-1.667-0.728-1.667-1.623C35.502 23.897 36.237 23.142 37.17 23.142L37.17 23.142zM62.802 23.142c0.933 0 1.639 0.756 1.639 1.679 0 0.896-0.706 1.623-1.639 1.623-0.904 0-1.64-0.728-1.64-1.623C61.162 23.897 61.897 23.142 62.802 23.142L62.802 23.142zM21.203 42.026h57.594c0.848 0 1.497 0.644 1.497 1.483v7.694c0 0.839-0.649 1.511-1.497 1.511H21.203c-0.848 0-1.526-0.672-1.526-1.511v-7.694C19.677 42.67 20.355 42.026 21.203 42.026L21.203 42.026zM23.436 54.28h53.101L69.16 76.857h-5.144H35.955h-5.143L23.436 54.28 23.436 54.28zM49.887 57.441c-0.396 0.057-0.707 0.42-0.678 0.812v14.408c-0.028 0.42 0.368 0.783 0.792 0.783s0.791-0.363 0.791-0.783V58.253C50.819 57.806 50.367 57.386 49.887 57.441L49.887 57.441zM34.089 57.498c-0.452 0.084-0.734 0.615-0.593 1.035l4.437 14.296c0.113 0.42 0.593 0.699 1.017 0.56 0.396-0.14 0.65-0.644 0.509-1.035L35.05 58.058c-0.113-0.364-0.509-0.616-0.876-0.56C34.146 57.498 34.118 57.498 34.089 57.498L34.089 57.498zM65.628 57.498c-0.312 0.027-0.594 0.279-0.679 0.56l-4.408 14.296c-0.142 0.392 0.085 0.896 0.509 1.035s0.904-0.14 1.017-0.56l4.409-14.296C66.645 58.029 66.164 57.441 65.628 57.498L65.628 57.498z" fill="#ffffff" data-fill-palette-color="accent"></path></g></svg></g></svg></g></svg></g></svg></g></svg></g><defs></defs></svg><rect width="395.52" height="247.2" fill="none" stroke="none" visibility="hidden"></rect></g></svg></g></svg>